<?xml version="1.0" encoding="utf-8"?>
<!-- Generator: Adobe Illustrator 14.0.0, SVG Export Plug-In . SVG Version: 6.00 Build 43363)  -->
<!DOCTYPE svg PUBLIC "-//W3C//DTD SVG 1.1//EN" "http://www.w3.org/Graphics/SVG/1.1/DTD/svg11.dtd">
<svg version="1.1"
	 id="Layer_1" shape-rendering="geometricPrecision" image-rendering="optimizeQuality" text-rendering="geometricPrecision"
	 xmlns="http://www.w3.org/2000/svg" xmlns:xlink="http://www.w3.org/1999/xlink" x="0px" y="0px" width="32px" height="32px"
	 viewBox="0 0 32 32" enable-background="new 0 0 32 32" xml:space="preserve">
<path fill="#334155" d="M5.354,2.06H7.45V0.699C7.45,0.313,7.764,0,8.15,0c0.386,0,0.699,0.313,0.699,0.699V2.06h3.077V0.699
	c0-0.386,0.313-0.699,0.7-0.699c0.386,0,0.699,0.313,0.699,0.699V2.06H16.4V0.699C16.4,0.313,16.713,0,17.1,0
	c0.386,0,0.699,0.313,0.699,0.699V2.06h3.076V0.699C20.875,0.313,21.188,0,21.574,0s0.699,0.313,0.699,0.699V2.06h2.16
	c0.614,0,1.173,0.252,1.576,0.656c0.335,0.334,0.564,0.775,0.635,1.265h0.002c0.613,0,1.173,0.252,1.576,0.655
	c0.404,0.404,0.656,0.963,0.656,1.577v23.555c0,0.611-0.254,1.17-0.656,1.574C27.815,31.748,27.257,32,26.646,32H7.354
	c-0.613,0-1.172-0.252-1.577-0.656c-0.384-0.383-0.63-0.908-0.653-1.487c-0.523-0.054-0.994-0.292-1.348-0.645
	c-0.404-0.403-0.656-0.962-0.656-1.576V4.292c0-0.614,0.252-1.173,0.655-1.577C4.18,2.312,4.739,2.06,5.354,2.06z M26.665,5.252
	v22.384c0,0.612-0.252,1.171-0.655,1.575c-0.404,0.404-0.964,0.656-1.576,0.656H6.399c0.024,0.225,0.125,0.427,0.277,0.578
	c0.175,0.175,0.416,0.283,0.678,0.283h19.292c0.264,0,0.504-0.108,0.678-0.282s0.283-0.414,0.283-0.679V6.212
	c0-0.263-0.109-0.503-0.283-0.678C27.148,5.359,26.913,5.257,26.665,5.252z M8.286,24.154c-0.359,0-0.65-0.303-0.65-0.678
	s0.292-0.678,0.65-0.678h13.427c0.358,0,0.65,0.303,0.65,0.678s-0.292,0.678-0.65,0.678H8.286z M8.286,19.68
	c-0.359,0-0.65-0.304-0.65-0.678c0-0.375,0.292-0.679,0.65-0.679h13.427c0.358,0,0.65,0.304,0.65,0.679
	c0,0.374-0.292,0.678-0.65,0.678H8.286z M8.286,15.205c-0.359,0-0.65-0.304-0.65-0.678s0.292-0.678,0.65-0.678h13.427
	c0.358,0,0.65,0.304,0.65,0.678s-0.292,0.678-0.65,0.678H8.286z M8.286,10.73c-0.359,0-0.65-0.304-0.65-0.679
	s0.292-0.678,0.65-0.678h13.427c0.358,0,0.65,0.304,0.65,0.678s-0.292,0.679-0.65,0.679H8.286z M22.273,3.331v1.361
	c0,0.386-0.313,0.699-0.699,0.699s-0.699-0.313-0.699-0.699V3.331h-3.076v1.361c0,0.386-0.313,0.699-0.699,0.699
	c-0.387,0-0.7-0.313-0.7-0.699V3.331h-3.076v1.361c0,0.386-0.313,0.699-0.699,0.699c-0.387,0-0.7-0.313-0.7-0.699V3.331H8.849v1.361
	c0,0.386-0.313,0.699-0.699,0.699c-0.386,0-0.7-0.313-0.7-0.699V3.331H5.354c-0.264,0-0.504,0.109-0.678,0.282
	C4.502,3.787,4.393,4.028,4.393,4.292v23.344c0,0.263,0.109,0.503,0.283,0.678c0.175,0.175,0.416,0.283,0.678,0.283h19.08
	c0.262,0,0.502-0.109,0.677-0.284s0.284-0.416,0.284-0.677V4.292c0-0.262-0.109-0.502-0.283-0.677
	c-0.175-0.174-0.416-0.283-0.678-0.283H22.273z"/>
</svg>
